<?xml version="1.0" encoding="UTF-8"?>
<!DOCTYPE svg PUBLIC "-//W3C//DTD SVG 1.1//EN" "http://www.w3.org/Graphics/SVG/1.1/DTD/svg11.dtd">
<!-- Creator: CorelDRAW X8 -->
<svg xmlns="http://www.w3.org/2000/svg" xml:space="preserve" width="962px" height="177px" version="1.1" shape-rendering="geometricPrecision" text-rendering="geometricPrecision" image-rendering="optimizeQuality" fill-rule="evenodd" clip-rule="evenodd"
viewBox="0 0 1403 258"
 xmlns:xlink="http://www.w3.org/1999/xlink">
 <g id="Layer_x0020_2">
  <metadata id="CorelCorpID_0Corel-Layer"/>
  <g id="_1284584699104">
   <g id="CITS">
    <path id="C" fill="white" fill-rule="nonzero" stroke="#00458F" stroke-width="2.73998" d="M37 91l54 28 0 59 -77 -39c-11,-5 -13,-12 -13,-27l0 -51 101 -51c7,-4 13,-6 21,-8 7,-1 18,-1 21,1l76 39 -59 30 -55 -28 -69 35 0 12z"/>
    <polygon id="I" fill="white" stroke="#00458F" stroke-width="2.73998" points="21,201 1,191 1,147 21,157 "/>
    <polygon id="T" fill="white" fill-rule="nonzero" stroke="#00458F" stroke-width="2.73998" points="91,207 74,198 73,228 52,217 52,187 34,178 34,163 91,192 "/>
    <path id="S" fill="white" fill-rule="nonzero" stroke="#00458F" stroke-width="2.73998" d="M256 171c0,5 -2,11 -6,17 -4,6 -9,11 -14,13l-107 55 -25 -13 0 -44 25 12 67 -34 0 -14 -68 35 -11 -6c-15,-8 -13,-17 -13,-29l0 -39c0,-5 1,-8 2,-9 0,0 0,0 0,-1 0,0 0,0 0,0 0,0 0,0 0,0 1,-1 1,-1 1,-1 1,0 1,-1 2,-1l125 -63 22 11 0 22 -93 47 0 17 73 -37c5,-2 10,-3 14,-1 4,3 6,6 6,12 0,17 0,34 0,51z"/>
   </g>
   <g>
    <path id="Canyon" fill="white" fill-rule="nonzero" stroke="#00458F" stroke-width="2.73998" d="M438 127l0 51 -149 0c-6,0 -11,-3 -16,-7 -5,-5 -7,-11 -7,-17l0 -129c0,-6 2,-12 7,-16 5,-5 10,-7 16,-7l149 0 0 50 -102 0 0 75 102 0zm193 51l-157 0c-6,0 -12,-3 -16,-7 -5,-5 -7,-11 -7,-17l0 -58c0,-7 2,-12 7,-17 4,-5 10,-7 16,-7l86 0 0 -20 -109 0 0 -50 156 0c7,0 12,2 17,7 5,4 7,10 7,16l0 153zm-71 -51l0 -16 -39 0 0 16 39 0zm264 51l-71 0 0 -126 -39 0 0 126 -71 0 0 -176 157 0c6,0 12,2 16,7 5,4 8,10 8,16l0 153zm192 54c0,6 -2,12 -7,17 -5,4 -10,7 -16,7l-157 0 0 -51 110 0 0 -27 -86 0c-7,0 -12,-3 -17,-7 -5,-5 -7,-11 -7,-17l0 -152 71 0 0 125 39 0 0 -125 70 0 0 230zm193 -78c0,6 -3,12 -7,17 -5,4 -10,7 -17,7l-133 0c-6,0 -12,-3 -16,-7 -5,-5 -7,-11 -7,-17l0 -129c0,-6 2,-12 7,-16 4,-5 10,-7 16,-7l133 0c7,0 12,2 17,7 4,4 7,10 7,16l0 129zm-71 -27l0 -75 -39 0 0 75 39 0zm263 51l-70 0 0 -126 -39 0 0 126 -71 0 0 -176 157 0c6,0 12,2 16,7 5,4 7,10 7,16l0 153z"/>
    <polygon id="IT" fill="white" fill-rule="nonzero" points="286,257 266,257 266,188 286,188 "/>
    <polygon id="1" fill="white" fill-rule="nonzero" points="350,203 332,203 332,257 311,257 311,203 293,203 293,188 350,188 "/>
    <polygon id="2" fill="none" fill-rule="nonzero" stroke="#00458F" stroke-width="2.73998" points="286,257 266,257 266,188 286,188 "/>
    <polygon id="3" fill="none" fill-rule="nonzero" stroke="#00458F" stroke-width="2.73998" points="350,203 332,203 332,257 311,257 311,203 293,203 293,188 350,188 "/>
    <path id="Solutions" fill="white" fill-rule="nonzero" stroke="#00458F" stroke-width="2.73998" d="M431 250c0,1 0,3 -2,4 -1,2 -3,2 -5,2l-45 0 0 -14 32 0 0 -5 -25 0c-2,0 -3,0 -5,-2 -1,-1 -2,-3 -2,-5l0 -18c0,-1 1,-3 2,-4 2,-2 3,-2 5,-2l45 0 0 14 -31 0 0 6 24 0c2,0 4,1 5,2 2,1 2,3 2,5l0 17zm59 0c0,1 -1,3 -2,4 -1,2 -3,2 -5,2l-38 0c-2,0 -4,0 -5,-2 -1,-1 -2,-3 -2,-4l0 -38c0,-1 1,-3 2,-4 1,-2 3,-2 5,-2l38 0c2,0 4,0 5,2 1,1 2,3 2,4l0 38zm-20 -8l0 -22 -12 0 0 22 12 0zm47 14l-20 0 0 -67 20 0 0 67zm59 0l-45 0c-2,0 -4,0 -5,-2 -1,-1 -2,-3 -2,-4l0 -44 20 0 0 36 12 0 0 -36 20 0 0 50zm44 0l-28 0c-2,0 -4,0 -5,-2 -1,-1 -2,-3 -2,-4l0 -33 -6 0 0 -11 6 0 0 -17 20 0 0 17 12 0 0 11 -12 0 0 25 15 0 0 14zm27 -56l-20 0 0 -11 20 0 0 11zm0 56l-20 0 0 -50 20 0 0 50zm59 -6c0,1 -1,3 -2,4 -1,2 -3,2 -5,2l-38 0c-2,0 -4,0 -5,-2 -1,-1 -2,-3 -2,-4l0 -38c0,-1 1,-3 2,-4 1,-2 3,-2 5,-2l38 0c2,0 4,0 5,2 1,1 2,3 2,4l0 38zm-20 -8l0 -22 -12 0 0 22 12 0zm79 14l-21 0 0 -36 -11 0 0 36 -20 0 0 -50 45 0c2,0 3,0 5,2 1,1 2,3 2,4l0 44zm59 -6c0,1 -1,3 -2,4 -2,2 -3,2 -5,2l-45 0 0 -14 31 0 0 -5 -25 0c-1,0 -3,0 -4,-2 -2,-1 -2,-3 -2,-5l0 -18c0,-1 0,-3 2,-4 1,-2 3,-2 4,-2l46 0 0 14 -32 0 0 6 25 0c2,0 3,1 5,2 1,1 2,3 2,5l0 17z"/>
   </g>
  </g>
 </g>
</svg>
